<svg version="1.1" xmlns="http://www.w3.org/2000/svg" xmlns:xlink="http://www.w3.org/1999/xlink" width="48" height="48"><defs><linearGradient x1="12.23187" y1="12.67034" x2="61.31951" y2="60.96569" gradientUnits="userSpaceOnUse" id="color-1"><stop offset="0" stop-color="#000000" stop-opacity="0.12"></stop><stop offset="1" stop-color="#000000" stop-opacity="0"></stop></linearGradient><filter id="dropshadow-base"><feColorMatrix type="matrix" values="0 0 0 0 0  0 0 0 0 0  0 0 0 0 0  0 0 0 .8 0"></feColorMatrix> <feOffset dx="0" dy="1"></feOffset> <feGaussianBlur stdDeviation="1"></feGaussianBlur> <feComposite in="SourceGraphic"></feComposite></filter><filter id="dropshadow-banner" x="-10%" y="-10%" width="120%" height="130%"><feColorMatrix type="matrix" values="0 0 0 0 0  0 0 0 0 0  0 0 0 0 0  0 0 0 .4 0"></feColorMatrix> <feOffset dx="0" dy="1"></feOffset> <feGaussianBlur stdDeviation="0.5"></feGaussianBlur> <feComposite in="SourceGraphic"></feComposite></filter></defs><g fill="none" fill-rule="nonzero" stroke="none" stroke-width="none" stroke-linecap="butt" stroke-linejoin="miter" stroke-miterlimit="10" stroke-dasharray="" stroke-dashoffset="0" font-family="none" font-weight="none" font-size="none" text-anchor="none" style="mix-blend-mode: normal"><path d="M2,24c0,-12.15026 9.84974,-22 22,-22c12.15026,0 22,9.84974 22,22c0,12.15026 -9.84974,22 -22,22c-12.15026,0 -22,-9.84974 -22,-22z" id="base 1 5" fill="#8bc34a" stroke-width="1"></path><path d="M12.57257,31.18034c-0.31981,-0.31981 -0.4359,-0.81176 -0.25567,-1.25745l2.20918,-5.46864l2.32297,2.32297v-0.51695l4.20382,4.20382l-4.81933,-11.93011c-0.23961,-0.59463 0.0478,-1.27097 0.6422,-1.51117l-0.00109,-0.00137l10.76985,-4.35111l2.10115,2.10115l-0.58998,-1.46004c-0.06027,-0.14877 -0.14787,-0.27828 -0.25466,-0.38507l16.43987,16.43987c-2.14535,8.55895 -9.30463,15.12917 -18.17479,16.40762z" fill="url(#color-1)" stroke-width="1"></path><path d="M14.52607,32.06811l-1.56807,-0.63294c-0.59457,-0.24063 -0.88157,-0.91762 -0.64111,-1.51226l2.20918,-5.46864zM20.17112,34.48174h-2.16045c-0.64155,0 -1.16162,-0.52008 -1.16162,-1.16162v-7.05985zM16.87464,17.02145l10.76986,-4.35112c0.59433,-0.23974 1.27054,0.04714 1.51117,0.64111l6.5279,16.15465c0.11541,0.2857 0.11259,0.60554 -0.00785,0.88916c-0.12044,0.28361 -0.34863,0.50776 -0.63435,0.6231l-10.77013,4.35139c-0.2857,0.11541 -0.60554,0.11259 -0.88916,-0.00785c-0.28361,-0.12044 -0.50776,-0.34863 -0.6231,-0.63435l-6.52545,-16.15356c-0.23962,-0.59463 0.0478,-1.27097 0.6422,-1.51117zM20.33364,20.54335c0.4192,0.00642 0.80933,-0.21355 1.0208,-0.57555c0.21147,-0.362 0.21147,-0.80987 0,-1.17188c-0.21147,-0.362 -0.6016,-0.58197 -1.0208,-0.57555c-0.63454,0.00971 -1.14384,0.52687 -1.14384,1.16149c0,0.63461 0.5093,1.15177 1.14384,1.16149z" fill="none" stroke-width="0"></path><path d="M14.52607,32.06811l-1.56807,-0.63294c-0.59457,-0.24063 -0.88157,-0.91762 -0.64111,-1.51226l2.20918,-5.46864zM20.17112,34.48174h-2.16045c-0.64155,0 -1.16162,-0.52008 -1.16162,-1.16162v-7.05985zM16.87464,17.02145l10.76986,-4.35112c0.59433,-0.23974 1.27054,0.04714 1.51117,0.64111l6.5279,16.15465c0.11541,0.2857 0.11259,0.60554 -0.00785,0.88916c-0.12044,0.28361 -0.34863,0.50776 -0.63435,0.6231l-10.77013,4.35139c-0.2857,0.11541 -0.60554,0.11259 -0.88916,-0.00785c-0.28361,-0.12044 -0.50776,-0.34863 -0.6231,-0.63435l-6.52545,-16.15356c-0.23962,-0.59463 0.0478,-1.27097 0.6422,-1.51117zM20.33364,20.54335c0.4192,0.00642 0.80933,-0.21355 1.0208,-0.57555c0.21147,-0.362 0.21147,-0.80987 0,-1.17188c-0.21147,-0.362 -0.6016,-0.58197 -1.0208,-0.57555c-0.63454,0.00971 -1.14384,0.52687 -1.14384,1.16149c0,0.63461 0.5093,1.15177 1.14384,1.16149z" fill="#ffffff" stroke-width="0"></path><path d="M2,24c0,-12.15026 9.84974,-22 22,-22c12.15026,0 22,9.84974 22,22c0,12.15026 -9.84974,22 -22,22c-12.15026,0 -22,-9.84974 -22,-22z" id="base 1 1 1" fill="none" stroke-width="1"></path><g fill="#000000" stroke-width="1" font-family="Roboto, sans-serif" font-weight="400" font-size="14" text-anchor="start"></g><path d="M16,36v-12h30v12z" id="banner 1" fill="#404041" stroke-width="1" filter="url(#dropshadow-banner)"></path><text x="31" y="33" fill="#ffffff" stroke-width="1" font-family="sans-serif" font-weight="bold" font-size="8" text-anchor="middle">BETA</text><rect x="2" y="2" width="44" height="22" fill="none" stroke-width="1"></rect><path d="M2,24v-22h44v22z" fill="none" stroke-width="1"></path><path d="M2,24v-22h44v22z" fill="none" stroke-width="1"></path><path d="M2,24v-22h44v22z" fill="none" stroke-width="1"></path><path d="M2,24v-22h44v22z" fill="none" stroke-width="1"></path></g></svg>