<svg xmlns="http://www.w3.org/2000/svg" width="200" height="200" viewBox="0 0 1024 1024"><path fill="#FFFFFFFF" d="M170.67,807.34l-57.6,-23.25a42.67,42.67 0,0 1,-23.55 -55.55L170.67,527.66v279.68zM378.03,896H298.67a42.67,42.67 0,0 1,-42.67 -42.67v-259.33L378.03,896zM256.94,254.63l395.61,-159.83a42.67,42.67 0,0 1,55.51 23.55l239.79,593.41a42.67,42.67 0,0 1,-23.59 55.55L528.64,927.15a42.67,42.67 0,0 1,-55.55 -23.59L233.39,310.19a42.67,42.67 0,0 1,23.59 -55.51zM384,384a42.67,42.67 0,1 0,0 -85.33,42.67 42.67,0 0,0 0,85.33z"/></svg>